PathFileType	4	(X/Y/Z)	57_2_69_p1_0-671.trc
DataRate	CameraRate	NumFrames	NumMarkers	Units	OrigDataRate	OrigDataStartFrame	OrigNumFrames
60.0	60.0	4	27	m	60.0	0	672
Frame#	Time	RHip			RKnee			RAnkle			RBigToe			RSmallToe			RHeel			LHip			LKnee			LAnkle			LBigToe			LSmallToe			LHeel			Neck			Head			Nose			RShoulder			RElbow			RWrist			RThumb			RIndex			RPinky			LShoulder			LElbow			LWrist			LThumb			LIndex			LPinky			
		X1	Y1	Z1	X2	Y2	Z2	X3	Y3	Z3	X4	Y4	Z4	X5	Y5	Z5	X6	Y6	Z6	X7	Y7	Z7	X8	Y8	Z8	X9	Y9	Z9	X10	Y10	Z10	X11	Y11	Z11	X12	Y12	Z12	X13	Y13	Z13	X14	Y14	Z14	X15	Y15	Z15	X16	Y16	Z16	X17	Y17	Z17	X18	Y18	Z18	X19	Y19	Z19	X20	Y20	Z20	X21	Y21	Z21	X22	Y22	Z22	X23	Y23	Z23	X24	Y24	Z24	X25	Y25	Z25	X26	Y26	Z26	X27	Y27	Z27	
0	0.0	0.25119121151944984	0.5993229877544135	0.9914213060908739	0.23610274244660204	0.6837385148553685	1.3767659906183065	0.23529063098818698	0.920479956999158	1.7762939290225663	0.22822198034072227	0.6520063580549363	1.8006664766625717	0.2811359912869723	0.7254714122206102	1.8097561353408427	0.23906042966445767	0.9837786073431294	1.810764356225023	0.03692535815988775	0.6052197748559807	1.0044512455116956	0.05881348532929708	0.7308230685260555	1.3788446741072278	0.07815486409776662	0.8902097274518838	1.7751773314434403	0.08397476851815003	0.6743543196911079	1.8054576068765078	0.02686776976935893	0.7461628406926715	1.8163268644245159	0.09610483136126019	0.9637212379803519	1.824325776989554	0.12392551145793872	0.43471964407918934	0.4522418052335479	0.11820705792052709	0.31204161694392374	0.23410915991442469	0.1142046558158413	0.2639036551131457	0.36989375607325786	0.28129125191024157	0.41861231080221845	0.5253265073764605	0.31030861016653016	0.47938195099008896	0.7818267113725252	0.1813810917281032	0.42608055717864884	0.9992448985229996	0.14746014137636337	0.4390785357628542	1.0977610773938993	0.14173025971676656	0.45425118340140497	1.1047385692292842	0.1420589008749642	0.46892513121984875	1.1021504803613054	-0.02024850036397189	0.45265887129924254	0.5291268818595419	-0.025324564063797395	0.46676892184765695	0.8021971145640846	0.07118474824538594	0.4234096853775833	1.0066012794987673	0.15535626891732288	0.42763706517668526	1.0824337339381163	0.1575982131300366	0.43074901899684914	1.0978457435807696	0.11446314905169387	0.46678463368817796	1.107792283604335
1	0.016666666666666666	0.2509562214815909	0.600422734025899	0.9953041756375263	0.23485415379366323	0.6870672936560855	1.3854162700628037	0.23517124917897278	0.8859631794189224	1.767499571892062	0.21999331923868923	0.6360840172954011	1.7964224855466373	0.2812095069725374	0.7251881527951808	1.8093763987452645	0.24041015511135677	0.9867898061080552	1.8153169114673013	0.03661351083120336	0.6059607037735635	1.0084314703662687	0.0600134274058201	0.7380774278307465	1.3931651241783032	0.0732741572198285	0.8870882496794159	1.774607133638894	0.08400181856173794	0.6740643732119416	1.805237376300913	0.026849162940099897	0.7456894403666154	1.8160419575234485	0.09805779462206059	0.9535704215601164	1.8214254070012545	0.12407832827500787	0.4346773341667002	0.452264138335156	0.12112514021919647	0.32399405704982626	0.23099475540227024	0.11725575045883647	0.2746684548817308	0.36760570095183565	0.2818363604909272	0.4206361959437619	0.5284516065664798	0.3105337720064962	0.47889090923991606	0.7854254548593368	0.1779167826849189	0.41358296758672325	0.9992837608337454	0.14237367125780967	0.4373675144009755	1.0947794485141036	0.14302912001393517	0.4416814857306342	1.1038903776075488	0.1467304657615732	0.4555735574987756	1.1011096515696523	-0.02004248645348855	0.45154653726925803	0.5256229096663527	-0.02540516334492802	0.4665638844511693	0.8022446784587928	0.07120095868409922	0.42319136201804564	1.006630912288995	0.15300625657785868	0.4283109085209352	1.0865671297141553	0.15514074661724028	0.4317762208247228	1.1018276093108867	0.11881139128039427	0.4528686299418759	1.1065955077752323
2	0.03333333333333333	0.25095437977768525	0.6003986380119255	0.9951642487546419	0.2347432747989793	0.6865697273404253	1.3852223258632248	0.23518007189229184	0.8857892971479433	1.7674087248732415	0.22510473027101366	0.639120446334141	1.7969491258924604	0.2862342345857152	0.7267378434669238	1.8094251389805633	0.23621624093802862	0.9705486427256617	1.8112344259684738	0.03706235262577496	0.6047399879209769	1.0047564995531613	0.06006190945919493	0.73797158510122	1.3931980258298078	0.07331301925464151	0.8868279537926671	1.7745386911930858	0.08483325520837513	0.6723055084527012	1.8009331590382471	0.02690099109241003	0.7457882917820543	1.81608775391049	0.09801140389017687	0.952812567278762	1.8212199970062626	0.12413939649228833	0.4345556497011063	0.45233668645708025	0.12079511145457021	0.3236248329718765	0.2272307199388025	0.117313467673322	0.2747536932350625	0.3676194169137465	0.28584924690010394	0.4321268941642377	0.5267515159511599	0.31040874691425846	0.47869196985888385	0.7854732843845482	0.1778663403678593	0.41336119257986786	0.9992332333440046	0.14225873709874723	0.43701210139321	1.0948059457510944	0.1386745127335662	0.45372798491159894	1.105002234632205	0.147011270526431	0.45522751735539535	1.103768443328821	-0.019875014257753232	0.45277935361430827	0.532740829330566	-0.02544185397286946	0.4665566091287082	0.802260882992356	0.0711672345007205	0.4230684504111038	1.0066391118835034	0.15311007738764157	0.42820220585370994	1.0865475087991237	0.15784314838416857	0.4309787422938953	1.0981013613115351	0.1113986002380294	0.4538097737007414	1.107251570943674
3	0.05	0.25098806283675973	0.6003291901049078	0.9952916245279659	0.23486349117997854	0.6867438641758651	1.3852229976726058	0.2347275398452007	0.8866141490644556	1.7631139626522303	0.2249740032263915	0.6388201549823919	1.7969527484046353	0.2892149116359241	0.7108946289234374	1.8004341738819678	0.2404098570154272	0.9866989110780907	1.8152518802864506	0.03627652589882813	0.6060034950465996	1.0050520131571383	0.06536625647576474	0.7419833588492242	1.398325339812094	0.07332131217956718	0.886889079287707	1.7745048489043533	0.08409807375703808	0.6739993819064527	1.8052100037263705	0.02746138642329696	0.7448242692490181	1.8199667188871727	0.098006041852393	0.9530609276590459	1.8212542020367435	0.12414439677333115	0.43448548416411503	0.45231217681088587	0.11825626672571113	0.3120084364924469	0.2340805822733165	0.11726401195330369	0.2746517588366148	0.3676487900738347	0.2818964976643291	0.4206649665392597	0.5284458641635107	0.3104571991998841	0.4786862870836951	0.7854764129636634	0.17780927893374468	0.4133882006023995	0.9992443538510742	0.14242986007097602	0.4371292561903459	1.094888856533869	0.13884813360884846	0.4540896326208389	1.1049903420338985	0.14666896988555106	0.45541959793068104	1.1010601694591278	-0.019717040248657527	0.4518029220556726	0.5292421624490856	-0.025417629059374197	0.466488110712264	0.8022226679934005	0.07101589831383019	0.4229049482743067	1.0065705101802769	0.1531474755362709	0.4285458197874064	1.0865427115207522	0.15443849073694663	0.43002049722954716	1.098235102953632	0.11073512345397656	0.4519895894298638	1.1035395554154424
